<svg width="800" height="800" viewBox="0 0 800 800" fill="none" xmlns="http://www.w3.org/2000/svg">
  <rect width="800" height="800" fill="#F3F4F6"/>
  <path d="M400 240C355.82 240 320 275.82 320 320C320 364.18 355.82 400 400 400C444.18 400 480 364.18 480 320C480 275.82 444.18 240 400 240ZM400 373.33C370.8 373.33 346.67 349.2 346.67 320C346.67 290.8 370.8 266.67 400 266.67C429.2 266.67 453.33 290.8 453.33 320C453.33 349.2 429.2 373.33 400 373.33Z" fill="#9CA3AF"/>
  <path d="M216 173.33H584V626.67H216V173.33ZM266.67 224V360L320 306.67L373.33 360L480 253.33L544 317.33V224H266.67ZM266.67 576H544V384L480 320L373.33 426.67L320 373.33L266.67 426.67V576Z" fill="#9CA3AF"/>
</svg> 